<svg width="16" height="16" viewBox="0 0 16 16" fill="none" xmlns="http://www.w3.org/2000/svg">
<path d="M4.0013 1.33334C3.64768 1.33334 3.30854 1.47382 3.05849 1.72387C2.80844 1.97392 2.66797 2.31305 2.66797 2.66668V13.3333C2.66797 13.687 2.80844 14.0261 3.05849 14.2762C3.30854 14.5262 3.64768 14.6667 4.0013 14.6667H12.0013C12.3549 14.6667 12.6941 14.5262 12.9441 14.2762C13.1942 14.0261 13.3346 13.687 13.3346 13.3333V5.33334L9.33463 1.33334H4.0013ZM4.0013 2.66668H8.66797V6.00001H12.0013V13.3333H4.0013V2.66668ZM5.33464 8.00001V9.33334H10.668V8.00001H5.33464ZM5.33464 10.6667V12H8.66797V10.6667H5.33464Z" fill="#1A476E"/>
</svg>
