<svg width="14" height="14" viewBox="0 0 14 14" fill="none" xmlns="http://www.w3.org/2000/svg">
<path d="M6.33203 5.00004H7.66536V3.66671H6.33203V5.00004ZM6.9987 12.3334C4.0587 12.3334 1.66536 9.94004 1.66536 7.00004C1.66536 4.06004 4.0587 1.66671 6.9987 1.66671C9.9387 1.66671 12.332 4.06004 12.332 7.00004C12.332 9.94004 9.9387 12.3334 6.9987 12.3334ZM6.9987 0.333374C6.12322 0.333374 5.25631 0.505812 4.44747 0.840844C3.63864 1.17588 2.90371 1.66694 2.28465 2.286C1.03441 3.53624 0.332031 5.23193 0.332031 7.00004C0.332031 8.76815 1.03441 10.4638 2.28465 11.7141C2.90371 12.3331 3.63864 12.8242 4.44747 13.1592C5.25631 13.4943 6.12322 13.6667 6.9987 13.6667C8.76681 13.6667 10.4625 12.9643 11.7127 11.7141C12.963 10.4638 13.6654 8.76815 13.6654 7.00004C13.6654 6.12456 13.4929 5.25765 13.1579 4.44882C12.8229 3.63998 12.3318 2.90505 11.7127 2.286C11.0937 1.66694 10.3588 1.17588 9.54992 0.840844C8.74108 0.505812 7.87418 0.333374 6.9987 0.333374ZM6.33203 10.3334H7.66536V6.33337H6.33203V10.3334Z" fill="#1A476E"/>
</svg>
