<svg width="16" height="16" viewBox="0 0 16 16" fill="none" xmlns="http://www.w3.org/2000/svg">
<path d="M6.66536 8.66667C6.43203 9.06 6.2387 9.49333 6.12536 9.95333C4.33203 10.1067 2.5987 10.9467 2.5987 11.3333V12.0667H6.13203C6.24536 12.52 6.43203 12.9467 6.66536 13.3333H1.33203V11.3333C1.33203 9.56 4.88536 8.66667 6.66536 8.66667ZM6.66536 2.66667C7.37261 2.66667 8.05089 2.94762 8.55098 3.44771C9.05108 3.94781 9.33203 4.62609 9.33203 5.33333C9.33203 5.94 9.12536 6.5 8.78537 6.95333C8.21203 7.16667 7.6987 7.50667 7.27203 7.93333L6.66536 8C5.95812 8 5.27984 7.71905 4.77975 7.21895C4.27965 6.71885 3.9987 6.04058 3.9987 5.33333C3.9987 4.62609 4.27965 3.94781 4.77975 3.44771C5.27984 2.94762 5.95812 2.66667 6.66536 2.66667ZM6.66536 3.93333C6.29406 3.93333 5.93797 4.08083 5.67542 4.34338C5.41286 4.60593 5.26536 4.96203 5.26536 5.33333C5.26536 5.70464 5.41286 6.06073 5.67542 6.32328C5.93797 6.58583 6.29406 6.73333 6.66536 6.73333C7.03667 6.73333 7.39276 6.58583 7.65531 6.32328C7.91787 6.06073 8.06536 5.70464 8.06536 5.33333C8.06536 4.96203 7.91787 4.60593 7.65531 4.34338C7.39276 4.08083 7.03667 3.93333 6.66536 3.93333ZM10.332 8C11.9987 8 13.332 9.33333 13.332 11C13.332 11.5867 13.1654 12.14 12.872 12.6L14.9254 14.6667L13.9987 15.5933L11.9187 13.5467C11.4587 13.8333 10.912 14 10.332 14C8.66536 14 7.33203 12.6667 7.33203 11C7.33203 9.33333 8.66536 8 10.332 8ZM10.332 9.33333C9.89 9.33333 9.46608 9.50893 9.15352 9.82149C8.84096 10.134 8.66536 10.558 8.66536 11C8.66536 11.442 8.84096 11.866 9.15352 12.1785C9.46608 12.4911 9.89 12.6667 10.332 12.6667C10.7741 12.6667 11.198 12.4911 11.5105 12.1785C11.8231 11.866 11.9987 11.442 11.9987 11C11.9987 10.558 11.8231 10.134 11.5105 9.82149C11.198 9.50893 10.7741 9.33333 10.332 9.33333Z" fill="#1A476E"/>
</svg>
